# xmcd
# 
# Track frame offsets:
#     150
#     11015
#     23627
#     46287
#     67390
#     85210
#     103830
#     123570
#     144792
#     160072
#     186007
#     202977
#     210937
# 
# Disc length: 3141
# 
# Revision: 22
# Processed by: cddbd v1.5.2PL0 Copyright (c) Steve Scherf et al.
# Submitted via: fre:ac v1.1beta1pre5
# 
DISCID=ab0c430d
DTITLE=Queen - The Miracle (Japan)
DYEAR=1989
DGENRE=Rock
TTITLE0=Party
TTITLE1=Khashoggi's Ship
TTITLE2=The Miracle
TTITLE3=I Want it All
TTITLE4=The Invisible Man
TTITLE5=Breakthru
TTITLE6=Rain Must Fall
TTITLE7=Scandal
TTITLE8=My Baby Does Me
TTITLE9=Was it All Worth it
TTITLE10=Hang on in There
TTITLE11=Chinese Torture
TTITLE12=The Invisible Man (12" Version)
EXTD=
EXTT0=
EXTT1=
EXTT2=
EXTT3=
EXTT4=
EXTT5=
EXTT6=
EXTT7=
EXTT8=
EXTT9=
EXTT10=
EXTT11=
EXTT12=
PLAYORDER=
